<?xml version="1.0" encoding="UTF-8" ?>
<svg version="1.1" width="44" height="15" xmlns="http://www.w3.org/2000/svg" shape-rendering="crispEdges">
<rect x="23" y="0" width="1" height="1" fill="#FFFFFF" />
<rect x="24" y="0" width="1" height="1" fill="#FFFFFF" />
<rect x="25" y="0" width="1" height="1" fill="#FFFFFF" />
<rect x="26" y="0" width="1" height="1" fill="#FFFFFF" />
<rect x="18" y="1" width="1" height="1" fill="#FFFFFF" />
<rect x="19" y="1" width="1" height="1" fill="#FFFFFF" />
<rect x="20" y="1" width="1" height="1" fill="#FFFFFF" />
<rect x="21" y="1" width="1" height="1" fill="#FFFFFF" />
<rect x="22" y="1" width="1" height="1" fill="#FFFFFF" />
<rect x="23" y="1" width="1" height="1" fill="#FFFFFF" />
<rect x="26" y="1" width="1" height="1" fill="#FFFFFF" />
<rect x="27" y="1" width="1" height="1" fill="#FFFFFF" />
<rect x="28" y="1" width="1" height="1" fill="#FFFFFF" />
<rect x="17" y="2" width="1" height="1" fill="#FFFFFF" />
<rect x="18" y="2" width="1" height="1" fill="#FFFFFF" />
<rect x="28" y="2" width="1" height="1" fill="#FFFFFF" />
<rect x="15" y="3" width="1" height="1" fill="#FFFFFF" />
<rect x="16" y="3" width="1" height="1" fill="#FFFFFF" />
<rect x="17" y="3" width="1" height="1" fill="#FFFFFF" />
<rect x="28" y="3" width="1" height="1" fill="#FFFFFF" />
<rect x="29" y="3" width="1" height="1" fill="#FFFFFF" />
<rect x="15" y="4" width="1" height="1" fill="#FFFFFF" />
<rect x="29" y="4" width="1" height="1" fill="#FFFFFF" />
<rect x="15" y="5" width="1" height="1" fill="#FFFFFF" />
<rect x="29" y="5" width="1" height="1" fill="#FFFFFF" />
<rect x="30" y="5" width="1" height="1" fill="#FFFFFF" />
<rect x="31" y="5" width="1" height="1" fill="#FFFFFF" />
<rect x="32" y="5" width="1" height="1" fill="#FFFFFF" />
<rect x="15" y="6" width="1" height="1" fill="#FFFFFF" />
<rect x="29" y="6" width="1" height="1" fill="#FFFFFF" />
<rect x="32" y="6" width="1" height="1" fill="#FFFFFF" />
<rect x="33" y="6" width="1" height="1" fill="#FFFFFF" />
<rect x="34" y="6" width="1" height="1" fill="#FFFFFF" />
<rect x="35" y="6" width="1" height="1" fill="#FFFFFF" />
<rect x="36" y="6" width="1" height="1" fill="#FFFFFF" />
<rect x="37" y="6" width="1" height="1" fill="#FFFFFF" />
<rect x="12" y="7" width="1" height="1" fill="#FFFFFF" />
<rect x="13" y="7" width="1" height="1" fill="#FFFFFF" />
<rect x="14" y="7" width="1" height="1" fill="#FFFFFF" />
<rect x="15" y="7" width="1" height="1" fill="#FFFFFF" />
<rect x="28" y="7" width="1" height="1" fill="#FFFFFF" />
<rect x="37" y="7" width="1" height="1" fill="#FFFFFF" />
<rect x="11" y="8" width="1" height="1" fill="#FFFFFF" />
<rect x="12" y="8" width="1" height="1" fill="#FFFFFF" />
<rect x="37" y="8" width="1" height="1" fill="#FFFFFF" />
<rect x="38" y="8" width="1" height="1" fill="#FFFFFF" />
<rect x="39" y="8" width="1" height="1" fill="#FFFFFF" />
<rect x="40" y="8" width="1" height="1" fill="#FFFFFF" />
<rect x="4" y="9" width="1" height="1" fill="#FFFFFF" />
<rect x="5" y="9" width="1" height="1" fill="#FFFFFF" />
<rect x="6" y="9" width="1" height="1" fill="#FFFFFF" />
<rect x="7" y="9" width="1" height="1" fill="#FFFFFF" />
<rect x="8" y="9" width="1" height="1" fill="#FFFFFF" />
<rect x="9" y="9" width="1" height="1" fill="#FFFFFF" />
<rect x="10" y="9" width="1" height="1" fill="#FFFFFF" />
<rect x="11" y="9" width="1" height="1" fill="#FFFFFF" />
<rect x="40" y="9" width="1" height="1" fill="#FFFFFF" />
<rect x="3" y="10" width="1" height="1" fill="#FFFFFF" />
<rect x="4" y="10" width="1" height="1" fill="#FFFFFF" />
<rect x="40" y="10" width="1" height="1" fill="#FFFFFF" />
<rect x="3" y="11" width="1" height="1" fill="#FFFFFF" />
<rect x="40" y="11" width="1" height="1" fill="#FFFFFF" />
<rect x="41" y="11" width="1" height="1" fill="#FFFFFF" />
<rect x="42" y="11" width="1" height="1" fill="#FFFFFF" />
<rect x="3" y="12" width="1" height="1" fill="#FFFFFF" />
<rect x="42" y="12" width="1" height="1" fill="#FFFFFF" />
<rect x="0" y="13" width="1" height="1" fill="#FFFFFF" />
<rect x="2" y="13" width="1" height="1" fill="#FFFFFF" />
<rect x="3" y="13" width="1" height="1" fill="#FFFFFF" />
<rect x="7" y="13" width="1" height="1" fill="#FFFFFF" />
<rect x="43" y="13" width="1" height="1" fill="#FFFFFF" />
<rect x="8" y="14" width="1" height="1" fill="#FFFFFF" />
<rect x="9" y="14" width="1" height="1" fill="#FFFFFF" />
<rect x="10" y="14" width="1" height="1" fill="#FFFFFF" />
<rect x="11" y="14" width="1" height="1" fill="#FFFFFF" />
<rect x="12" y="14" width="1" height="1" fill="#FFFFFF" />
<rect x="13" y="14" width="1" height="1" fill="#FFFFFF" />
<rect x="14" y="14" width="1" height="1" fill="#FFFFFF" />
<rect x="15" y="14" width="1" height="1" fill="#FFFFFF" />
<rect x="16" y="14" width="1" height="1" fill="#FFFFFF" />
<rect x="17" y="14" width="1" height="1" fill="#FFFFFF" />
<rect x="18" y="14" width="1" height="1" fill="#FFFFFF" />
<rect x="19" y="14" width="1" height="1" fill="#FFFFFF" />
<rect x="20" y="14" width="1" height="1" fill="#FFFFFF" />
<rect x="21" y="14" width="1" height="1" fill="#FFFFFF" />
<rect x="22" y="14" width="1" height="1" fill="#FFFFFF" />
<rect x="23" y="14" width="1" height="1" fill="#FFFFFF" />
<rect x="24" y="14" width="1" height="1" fill="#FFFFFF" />
<rect x="25" y="14" width="1" height="1" fill="#FFFFFF" />
<rect x="26" y="14" width="1" height="1" fill="#FFFFFF" />
<rect x="27" y="14" width="1" height="1" fill="#FFFFFF" />
<rect x="28" y="14" width="1" height="1" fill="#FFFFFF" />
<rect x="29" y="14" width="1" height="1" fill="#FFFFFF" />
<rect x="30" y="14" width="1" height="1" fill="#FFFFFF" />
<rect x="31" y="14" width="1" height="1" fill="#FFFFFF" />
<rect x="32" y="14" width="1" height="1" fill="#FFFFFF" />
<rect x="33" y="14" width="1" height="1" fill="#FFFFFF" />
<rect x="34" y="14" width="1" height="1" fill="#FFFFFF" />
<rect x="35" y="14" width="1" height="1" fill="#FFFFFF" />
<rect x="36" y="14" width="1" height="1" fill="#FFFFFF" />
<rect x="37" y="14" width="1" height="1" fill="#FFFFFF" />
<rect x="38" y="14" width="1" height="1" fill="#FFFFFF" />
<rect x="39" y="14" width="1" height="1" fill="#FFFFFF" />
<rect x="40" y="14" width="1" height="1" fill="#FFFFFF" />
<rect x="41" y="14" width="1" height="1" fill="#FFFFFF" />
<rect x="42" y="14" width="1" height="1" fill="#FFFFFF" />
<rect x="43" y="14" width="1" height="1" fill="#FFFFFF" />
</svg>