<?xml version="1.0" encoding="UTF-8" ?>
<svg version="1.1" width="46" height="21" xmlns="http://www.w3.org/2000/svg" shape-rendering="crispEdges">
<rect x="31" y="0" width="1" height="1" fill="#EBEBEB" />
<rect x="30" y="1" width="1" height="1" fill="#EBEBEB" />
<rect x="31" y="1" width="1" height="1" fill="#535353" />
<rect x="32" y="1" width="1" height="1" fill="#EBEBEB" />
<rect x="30" y="2" width="1" height="1" fill="#EBEBEB" />
<rect x="31" y="2" width="1" height="1" fill="#535353" />
<rect x="32" y="2" width="1" height="1" fill="#535353" />
<rect x="33" y="2" width="1" height="1" fill="#EBEBEB" />
<rect x="5" y="3" width="1" height="1" fill="#EBEBEB" />
<rect x="6" y="3" width="1" height="1" fill="#EBEBEB" />
<rect x="28" y="3" width="1" height="1" fill="#EBEBEB" />
<rect x="29" y="3" width="1" height="1" fill="#EBEBEB" />
<rect x="30" y="3" width="1" height="1" fill="#EBEBEB" />
<rect x="31" y="3" width="1" height="1" fill="#535353" />
<rect x="32" y="3" width="1" height="1" fill="#535353" />
<rect x="33" y="3" width="1" height="1" fill="#535353" />
<rect x="34" y="3" width="1" height="1" fill="#EBEBEB" />
<rect x="4" y="4" width="1" height="1" fill="#EBEBEB" />
<rect x="5" y="4" width="1" height="1" fill="#535353" />
<rect x="6" y="4" width="1" height="1" fill="#535353" />
<rect x="7" y="4" width="1" height="1" fill="#EBEBEB" />
<rect x="27" y="4" width="1" height="1" fill="#EBEBEB" />
<rect x="28" y="4" width="1" height="1" fill="#535353" />
<rect x="29" y="4" width="1" height="1" fill="#535353" />
<rect x="30" y="4" width="1" height="1" fill="#EBEBEB" />
<rect x="31" y="4" width="1" height="1" fill="#EBEBEB" />
<rect x="32" y="4" width="1" height="1" fill="#535353" />
<rect x="33" y="4" width="1" height="1" fill="#535353" />
<rect x="34" y="4" width="1" height="1" fill="#535353" />
<rect x="35" y="4" width="1" height="1" fill="#EBEBEB" />
<rect x="3" y="5" width="1" height="1" fill="#EBEBEB" />
<rect x="4" y="5" width="1" height="1" fill="#535353" />
<rect x="5" y="5" width="1" height="1" fill="#535353" />
<rect x="6" y="5" width="1" height="1" fill="#535353" />
<rect x="7" y="5" width="1" height="1" fill="#EBEBEB" />
<rect x="26" y="5" width="1" height="1" fill="#EBEBEB" />
<rect x="27" y="5" width="1" height="1" fill="#535353" />
<rect x="28" y="5" width="1" height="1" fill="#535353" />
<rect x="29" y="5" width="1" height="1" fill="#535353" />
<rect x="30" y="5" width="1" height="1" fill="#EBEBEB" />
<rect x="31" y="5" width="1" height="1" fill="#EBEBEB" />
<rect x="32" y="5" width="1" height="1" fill="#535353" />
<rect x="33" y="5" width="1" height="1" fill="#535353" />
<rect x="34" y="5" width="1" height="1" fill="#535353" />
<rect x="35" y="5" width="1" height="1" fill="#535353" />
<rect x="36" y="5" width="1" height="1" fill="#EBEBEB" />
<rect x="2" y="6" width="1" height="1" fill="#EBEBEB" />
<rect x="3" y="6" width="1" height="1" fill="#535353" />
<rect x="4" y="6" width="1" height="1" fill="#535353" />
<rect x="5" y="6" width="1" height="1" fill="#535353" />
<rect x="6" y="6" width="1" height="1" fill="#535353" />
<rect x="7" y="6" width="1" height="1" fill="#535353" />
<rect x="8" y="6" width="1" height="1" fill="#EBEBEB" />
<rect x="25" y="6" width="1" height="1" fill="#EBEBEB" />
<rect x="26" y="6" width="1" height="1" fill="#535353" />
<rect x="27" y="6" width="1" height="1" fill="#535353" />
<rect x="28" y="6" width="1" height="1" fill="#535353" />
<rect x="29" y="6" width="1" height="1" fill="#535353" />
<rect x="30" y="6" width="1" height="1" fill="#535353" />
<rect x="31" y="6" width="1" height="1" fill="#EBEBEB" />
<rect x="32" y="6" width="1" height="1" fill="#535353" />
<rect x="33" y="6" width="1" height="1" fill="#535353" />
<rect x="34" y="6" width="1" height="1" fill="#535353" />
<rect x="35" y="6" width="1" height="1" fill="#535353" />
<rect x="36" y="6" width="1" height="1" fill="#535353" />
<rect x="37" y="6" width="1" height="1" fill="#EBEBEB" />
<rect x="1" y="7" width="1" height="1" fill="#EBEBEB" />
<rect x="2" y="7" width="1" height="1" fill="#535353" />
<rect x="3" y="7" width="1" height="1" fill="#535353" />
<rect x="4" y="7" width="1" height="1" fill="#535353" />
<rect x="5" y="7" width="1" height="1" fill="#535353" />
<rect x="6" y="7" width="1" height="1" fill="#535353" />
<rect x="7" y="7" width="1" height="1" fill="#535353" />
<rect x="8" y="7" width="1" height="1" fill="#EBEBEB" />
<rect x="9" y="7" width="1" height="1" fill="#EBEBEB" />
<rect x="10" y="7" width="1" height="1" fill="#EBEBEB" />
<rect x="11" y="7" width="1" height="1" fill="#EBEBEB" />
<rect x="12" y="7" width="1" height="1" fill="#EBEBEB" />
<rect x="13" y="7" width="1" height="1" fill="#EBEBEB" />
<rect x="14" y="7" width="1" height="1" fill="#EBEBEB" />
<rect x="24" y="7" width="1" height="1" fill="#EBEBEB" />
<rect x="25" y="7" width="1" height="1" fill="#535353" />
<rect x="26" y="7" width="1" height="1" fill="#535353" />
<rect x="27" y="7" width="1" height="1" fill="#535353" />
<rect x="28" y="7" width="1" height="1" fill="#535353" />
<rect x="29" y="7" width="1" height="1" fill="#535353" />
<rect x="30" y="7" width="1" height="1" fill="#535353" />
<rect x="31" y="7" width="1" height="1" fill="#EBEBEB" />
<rect x="32" y="7" width="1" height="1" fill="#535353" />
<rect x="33" y="7" width="1" height="1" fill="#535353" />
<rect x="34" y="7" width="1" height="1" fill="#535353" />
<rect x="35" y="7" width="1" height="1" fill="#535353" />
<rect x="36" y="7" width="1" height="1" fill="#535353" />
<rect x="37" y="7" width="1" height="1" fill="#535353" />
<rect x="38" y="7" width="1" height="1" fill="#EBEBEB" />
<rect x="0" y="8" width="1" height="1" fill="#EBEBEB" />
<rect x="1" y="8" width="1" height="1" fill="#535353" />
<rect x="2" y="8" width="1" height="1" fill="#535353" />
<rect x="3" y="8" width="1" height="1" fill="#535353" />
<rect x="4" y="8" width="1" height="1" fill="#535353" />
<rect x="5" y="8" width="1" height="1" fill="#535353" />
<rect x="6" y="8" width="1" height="1" fill="#535353" />
<rect x="7" y="8" width="1" height="1" fill="#535353" />
<rect x="8" y="8" width="1" height="1" fill="#535353" />
<rect x="9" y="8" width="1" height="1" fill="#535353" />
<rect x="10" y="8" width="1" height="1" fill="#535353" />
<rect x="11" y="8" width="1" height="1" fill="#535353" />
<rect x="12" y="8" width="1" height="1" fill="#535353" />
<rect x="13" y="8" width="1" height="1" fill="#535353" />
<rect x="14" y="8" width="1" height="1" fill="#535353" />
<rect x="15" y="8" width="1" height="1" fill="#EBEBEB" />
<rect x="23" y="8" width="1" height="1" fill="#EBEBEB" />
<rect x="24" y="8" width="1" height="1" fill="#535353" />
<rect x="25" y="8" width="1" height="1" fill="#535353" />
<rect x="26" y="8" width="1" height="1" fill="#535353" />
<rect x="27" y="8" width="1" height="1" fill="#535353" />
<rect x="28" y="8" width="1" height="1" fill="#535353" />
<rect x="29" y="8" width="1" height="1" fill="#535353" />
<rect x="30" y="8" width="1" height="1" fill="#535353" />
<rect x="31" y="8" width="1" height="1" fill="#535353" />
<rect x="32" y="8" width="1" height="1" fill="#535353" />
<rect x="33" y="8" width="1" height="1" fill="#535353" />
<rect x="34" y="8" width="1" height="1" fill="#535353" />
<rect x="35" y="8" width="1" height="1" fill="#535353" />
<rect x="36" y="8" width="1" height="1" fill="#535353" />
<rect x="37" y="8" width="1" height="1" fill="#535353" />
<rect x="38" y="8" width="1" height="1" fill="#EBEBEB" />
<rect x="1" y="9" width="1" height="1" fill="#EBEBEB" />
<rect x="2" y="9" width="1" height="1" fill="#EBEBEB" />
<rect x="3" y="9" width="1" height="1" fill="#EBEBEB" />
<rect x="4" y="9" width="1" height="1" fill="#EBEBEB" />
<rect x="5" y="9" width="1" height="1" fill="#EBEBEB" />
<rect x="6" y="9" width="1" height="1" fill="#EBEBEB" />
<rect x="7" y="9" width="1" height="1" fill="#535353" />
<rect x="8" y="9" width="1" height="1" fill="#535353" />
<rect x="9" y="9" width="1" height="1" fill="#535353" />
<rect x="10" y="9" width="1" height="1" fill="#535353" />
<rect x="11" y="9" width="1" height="1" fill="#535353" />
<rect x="12" y="9" width="1" height="1" fill="#535353" />
<rect x="13" y="9" width="1" height="1" fill="#535353" />
<rect x="14" y="9" width="1" height="1" fill="#535353" />
<rect x="15" y="9" width="1" height="1" fill="#535353" />
<rect x="16" y="9" width="1" height="1" fill="#EBEBEB" />
<rect x="17" y="9" width="1" height="1" fill="#EBEBEB" />
<rect x="18" y="9" width="1" height="1" fill="#EBEBEB" />
<rect x="19" y="9" width="1" height="1" fill="#EBEBEB" />
<rect x="20" y="9" width="1" height="1" fill="#EBEBEB" />
<rect x="21" y="9" width="1" height="1" fill="#EBEBEB" />
<rect x="24" y="9" width="1" height="1" fill="#EBEBEB" />
<rect x="25" y="9" width="1" height="1" fill="#EBEBEB" />
<rect x="26" y="9" width="1" height="1" fill="#EBEBEB" />
<rect x="27" y="9" width="1" height="1" fill="#EBEBEB" />
<rect x="28" y="9" width="1" height="1" fill="#EBEBEB" />
<rect x="29" y="9" width="1" height="1" fill="#EBEBEB" />
<rect x="30" y="9" width="1" height="1" fill="#535353" />
<rect x="31" y="9" width="1" height="1" fill="#535353" />
<rect x="32" y="9" width="1" height="1" fill="#535353" />
<rect x="33" y="9" width="1" height="1" fill="#535353" />
<rect x="34" y="9" width="1" height="1" fill="#535353" />
<rect x="35" y="9" width="1" height="1" fill="#535353" />
<rect x="36" y="9" width="1" height="1" fill="#535353" />
<rect x="37" y="9" width="1" height="1" fill="#535353" />
<rect x="38" y="9" width="1" height="1" fill="#535353" />
<rect x="39" y="9" width="1" height="1" fill="#EBEBEB" />
<rect x="40" y="9" width="1" height="1" fill="#EBEBEB" />
<rect x="41" y="9" width="1" height="1" fill="#EBEBEB" />
<rect x="42" y="9" width="1" height="1" fill="#EBEBEB" />
<rect x="43" y="9" width="1" height="1" fill="#EBEBEB" />
<rect x="44" y="9" width="1" height="1" fill="#EBEBEB" />
<rect x="7" y="10" width="1" height="1" fill="#EBEBEB" />
<rect x="8" y="10" width="1" height="1" fill="#535353" />
<rect x="9" y="10" width="1" height="1" fill="#535353" />
<rect x="10" y="10" width="1" height="1" fill="#535353" />
<rect x="11" y="10" width="1" height="1" fill="#535353" />
<rect x="12" y="10" width="1" height="1" fill="#535353" />
<rect x="13" y="10" width="1" height="1" fill="#535353" />
<rect x="14" y="10" width="1" height="1" fill="#535353" />
<rect x="15" y="10" width="1" height="1" fill="#535353" />
<rect x="16" y="10" width="1" height="1" fill="#535353" />
<rect x="17" y="10" width="1" height="1" fill="#535353" />
<rect x="18" y="10" width="1" height="1" fill="#535353" />
<rect x="19" y="10" width="1" height="1" fill="#535353" />
<rect x="20" y="10" width="1" height="1" fill="#535353" />
<rect x="21" y="10" width="1" height="1" fill="#535353" />
<rect x="22" y="10" width="1" height="1" fill="#EBEBEB" />
<rect x="30" y="10" width="1" height="1" fill="#EBEBEB" />
<rect x="31" y="10" width="1" height="1" fill="#535353" />
<rect x="32" y="10" width="1" height="1" fill="#535353" />
<rect x="33" y="10" width="1" height="1" fill="#535353" />
<rect x="34" y="10" width="1" height="1" fill="#535353" />
<rect x="35" y="10" width="1" height="1" fill="#535353" />
<rect x="36" y="10" width="1" height="1" fill="#535353" />
<rect x="37" y="10" width="1" height="1" fill="#535353" />
<rect x="38" y="10" width="1" height="1" fill="#535353" />
<rect x="39" y="10" width="1" height="1" fill="#535353" />
<rect x="40" y="10" width="1" height="1" fill="#535353" />
<rect x="41" y="10" width="1" height="1" fill="#535353" />
<rect x="42" y="10" width="1" height="1" fill="#535353" />
<rect x="43" y="10" width="1" height="1" fill="#535353" />
<rect x="44" y="10" width="1" height="1" fill="#535353" />
<rect x="45" y="10" width="1" height="1" fill="#EBEBEB" />
<rect x="7" y="11" width="1" height="1" fill="#EBEBEB" />
<rect x="8" y="11" width="1" height="1" fill="#535353" />
<rect x="9" y="11" width="1" height="1" fill="#535353" />
<rect x="10" y="11" width="1" height="1" fill="#535353" />
<rect x="11" y="11" width="1" height="1" fill="#535353" />
<rect x="12" y="11" width="1" height="1" fill="#535353" />
<rect x="13" y="11" width="1" height="1" fill="#535353" />
<rect x="14" y="11" width="1" height="1" fill="#535353" />
<rect x="15" y="11" width="1" height="1" fill="#535353" />
<rect x="16" y="11" width="1" height="1" fill="#535353" />
<rect x="17" y="11" width="1" height="1" fill="#535353" />
<rect x="18" y="11" width="1" height="1" fill="#535353" />
<rect x="19" y="11" width="1" height="1" fill="#535353" />
<rect x="20" y="11" width="1" height="1" fill="#535353" />
<rect x="21" y="11" width="1" height="1" fill="#535353" />
<rect x="22" y="11" width="1" height="1" fill="#EBEBEB" />
<rect x="30" y="11" width="1" height="1" fill="#EBEBEB" />
<rect x="31" y="11" width="1" height="1" fill="#535353" />
<rect x="32" y="11" width="1" height="1" fill="#535353" />
<rect x="33" y="11" width="1" height="1" fill="#535353" />
<rect x="34" y="11" width="1" height="1" fill="#535353" />
<rect x="35" y="11" width="1" height="1" fill="#535353" />
<rect x="36" y="11" width="1" height="1" fill="#535353" />
<rect x="37" y="11" width="1" height="1" fill="#535353" />
<rect x="38" y="11" width="1" height="1" fill="#535353" />
<rect x="39" y="11" width="1" height="1" fill="#535353" />
<rect x="40" y="11" width="1" height="1" fill="#535353" />
<rect x="41" y="11" width="1" height="1" fill="#535353" />
<rect x="42" y="11" width="1" height="1" fill="#535353" />
<rect x="43" y="11" width="1" height="1" fill="#535353" />
<rect x="44" y="11" width="1" height="1" fill="#535353" />
<rect x="45" y="11" width="1" height="1" fill="#EBEBEB" />
<rect x="8" y="12" width="1" height="1" fill="#EBEBEB" />
<rect x="9" y="12" width="1" height="1" fill="#535353" />
<rect x="10" y="12" width="1" height="1" fill="#535353" />
<rect x="11" y="12" width="1" height="1" fill="#535353" />
<rect x="12" y="12" width="1" height="1" fill="#535353" />
<rect x="13" y="12" width="1" height="1" fill="#535353" />
<rect x="14" y="12" width="1" height="1" fill="#535353" />
<rect x="15" y="12" width="1" height="1" fill="#535353" />
<rect x="16" y="12" width="1" height="1" fill="#535353" />
<rect x="17" y="12" width="1" height="1" fill="#535353" />
<rect x="18" y="12" width="1" height="1" fill="#535353" />
<rect x="19" y="12" width="1" height="1" fill="#EBEBEB" />
<rect x="20" y="12" width="1" height="1" fill="#EBEBEB" />
<rect x="21" y="12" width="1" height="1" fill="#EBEBEB" />
<rect x="31" y="12" width="1" height="1" fill="#EBEBEB" />
<rect x="32" y="12" width="1" height="1" fill="#535353" />
<rect x="33" y="12" width="1" height="1" fill="#535353" />
<rect x="34" y="12" width="1" height="1" fill="#535353" />
<rect x="35" y="12" width="1" height="1" fill="#535353" />
<rect x="36" y="12" width="1" height="1" fill="#535353" />
<rect x="37" y="12" width="1" height="1" fill="#535353" />
<rect x="38" y="12" width="1" height="1" fill="#535353" />
<rect x="39" y="12" width="1" height="1" fill="#535353" />
<rect x="40" y="12" width="1" height="1" fill="#535353" />
<rect x="41" y="12" width="1" height="1" fill="#535353" />
<rect x="42" y="12" width="1" height="1" fill="#EBEBEB" />
<rect x="43" y="12" width="1" height="1" fill="#EBEBEB" />
<rect x="44" y="12" width="1" height="1" fill="#EBEBEB" />
<rect x="8" y="13" width="1" height="1" fill="#EBEBEB" />
<rect x="9" y="13" width="1" height="1" fill="#535353" />
<rect x="10" y="13" width="1" height="1" fill="#535353" />
<rect x="11" y="13" width="1" height="1" fill="#535353" />
<rect x="12" y="13" width="1" height="1" fill="#535353" />
<rect x="13" y="13" width="1" height="1" fill="#535353" />
<rect x="14" y="13" width="1" height="1" fill="#535353" />
<rect x="15" y="13" width="1" height="1" fill="#535353" />
<rect x="16" y="13" width="1" height="1" fill="#535353" />
<rect x="17" y="13" width="1" height="1" fill="#535353" />
<rect x="18" y="13" width="1" height="1" fill="#535353" />
<rect x="19" y="13" width="1" height="1" fill="#535353" />
<rect x="20" y="13" width="1" height="1" fill="#535353" />
<rect x="21" y="13" width="1" height="1" fill="#EBEBEB" />
<rect x="32" y="13" width="1" height="1" fill="#EBEBEB" />
<rect x="33" y="13" width="1" height="1" fill="#535353" />
<rect x="34" y="13" width="1" height="1" fill="#535353" />
<rect x="35" y="13" width="1" height="1" fill="#535353" />
<rect x="36" y="13" width="1" height="1" fill="#535353" />
<rect x="37" y="13" width="1" height="1" fill="#535353" />
<rect x="38" y="13" width="1" height="1" fill="#535353" />
<rect x="39" y="13" width="1" height="1" fill="#535353" />
<rect x="40" y="13" width="1" height="1" fill="#535353" />
<rect x="41" y="13" width="1" height="1" fill="#535353" />
<rect x="42" y="13" width="1" height="1" fill="#535353" />
<rect x="43" y="13" width="1" height="1" fill="#535353" />
<rect x="44" y="13" width="1" height="1" fill="#EBEBEB" />
<rect x="8" y="14" width="1" height="1" fill="#EBEBEB" />
<rect x="9" y="14" width="1" height="1" fill="#535353" />
<rect x="10" y="14" width="1" height="1" fill="#535353" />
<rect x="11" y="14" width="1" height="1" fill="#535353" />
<rect x="12" y="14" width="1" height="1" fill="#535353" />
<rect x="13" y="14" width="1" height="1" fill="#535353" />
<rect x="14" y="14" width="1" height="1" fill="#535353" />
<rect x="15" y="14" width="1" height="1" fill="#535353" />
<rect x="16" y="14" width="1" height="1" fill="#535353" />
<rect x="17" y="14" width="1" height="1" fill="#535353" />
<rect x="18" y="14" width="1" height="1" fill="#EBEBEB" />
<rect x="19" y="14" width="1" height="1" fill="#EBEBEB" />
<rect x="20" y="14" width="1" height="1" fill="#EBEBEB" />
<rect x="33" y="14" width="1" height="1" fill="#EBEBEB" />
<rect x="34" y="14" width="1" height="1" fill="#535353" />
<rect x="35" y="14" width="1" height="1" fill="#535353" />
<rect x="36" y="14" width="1" height="1" fill="#535353" />
<rect x="37" y="14" width="1" height="1" fill="#535353" />
<rect x="38" y="14" width="1" height="1" fill="#535353" />
<rect x="39" y="14" width="1" height="1" fill="#535353" />
<rect x="40" y="14" width="1" height="1" fill="#535353" />
<rect x="41" y="14" width="1" height="1" fill="#EBEBEB" />
<rect x="42" y="14" width="1" height="1" fill="#EBEBEB" />
<rect x="43" y="14" width="1" height="1" fill="#EBEBEB" />
<rect x="8" y="15" width="1" height="1" fill="#EBEBEB" />
<rect x="9" y="15" width="1" height="1" fill="#535353" />
<rect x="10" y="15" width="1" height="1" fill="#535353" />
<rect x="11" y="15" width="1" height="1" fill="#535353" />
<rect x="12" y="15" width="1" height="1" fill="#535353" />
<rect x="13" y="15" width="1" height="1" fill="#EBEBEB" />
<rect x="14" y="15" width="1" height="1" fill="#EBEBEB" />
<rect x="15" y="15" width="1" height="1" fill="#EBEBEB" />
<rect x="16" y="15" width="1" height="1" fill="#EBEBEB" />
<rect x="17" y="15" width="1" height="1" fill="#EBEBEB" />
<rect x="34" y="15" width="1" height="1" fill="#EBEBEB" />
<rect x="35" y="15" width="1" height="1" fill="#EBEBEB" />
<rect x="36" y="15" width="1" height="1" fill="#EBEBEB" />
<rect x="37" y="15" width="1" height="1" fill="#EBEBEB" />
<rect x="38" y="15" width="1" height="1" fill="#EBEBEB" />
<rect x="39" y="15" width="1" height="1" fill="#EBEBEB" />
<rect x="40" y="15" width="1" height="1" fill="#EBEBEB" />
<rect x="8" y="16" width="1" height="1" fill="#EBEBEB" />
<rect x="9" y="16" width="1" height="1" fill="#535353" />
<rect x="10" y="16" width="1" height="1" fill="#535353" />
<rect x="11" y="16" width="1" height="1" fill="#535353" />
<rect x="12" y="16" width="1" height="1" fill="#EBEBEB" />
<rect x="8" y="17" width="1" height="1" fill="#EBEBEB" />
<rect x="9" y="17" width="1" height="1" fill="#535353" />
<rect x="10" y="17" width="1" height="1" fill="#535353" />
<rect x="11" y="17" width="1" height="1" fill="#EBEBEB" />
<rect x="8" y="18" width="1" height="1" fill="#EBEBEB" />
<rect x="9" y="18" width="1" height="1" fill="#535353" />
<rect x="10" y="18" width="1" height="1" fill="#535353" />
<rect x="11" y="18" width="1" height="1" fill="#EBEBEB" />
<rect x="8" y="19" width="1" height="1" fill="#EBEBEB" />
<rect x="9" y="19" width="1" height="1" fill="#535353" />
<rect x="10" y="19" width="1" height="1" fill="#EBEBEB" />
<rect x="9" y="20" width="1" height="1" fill="#EBEBEB" />
</svg>